<svg xmlns="http://www.w3.org/2000/svg" version="1.1" xmlns:xlink="http://www.w3.org/1999/xlink" xmlns:svgjs="http://svgjs.dev/svgjs" width="1500" height="1500" viewBox="0 0 1500 1500"><rect width="1500" height="1500" fill="#000000"></rect><g transform="matrix(0.6666666666666666,0,0,0.6666666666666666,249.39424313651296,656.4909255261996)"><svg viewBox="0 0 396 74" data-background-color="#21232b" preserveAspectRatio="xMidYMid meet" height="280" width="1500" xmlns="http://www.w3.org/2000/svg" xmlns:xlink="http://www.w3.org/1999/xlink"><g id="tight-bounds" transform="matrix(1,0,0,1,0.24012028205913793,0.06966880925656938)"><svg viewBox="0 0 395.52 73.86066238148685" height="73.86066238148685" width="395.52"><g><svg viewBox="0 0 594.1317252011897 110.95004744441596" height="73.86066238148685" width="395.52"><g><rect width="8.829188679349825" height="98.3946892817391" x="166.66947715181416" y="6.277679081338427" fill="#ffffff" opacity="1" stroke-width="0" stroke="transparent" fill-opacity="1" class="rect-qz-0" data-fill-palette-color="primary" rx="1%" id="qz-0" data-palette-color="#f4f3f0"></rect></g><g transform="matrix(1,0,0,1,198.6117252011897,6.522441989999464)"><svg viewBox="0 0 395.52 97.90516346441703" height="97.90516346441703" width="395.52"><g id="textblocktransform"><svg viewBox="0 0 395.52 97.90516346441703" height="97.90516346441703" width="395.52" id="textblock"><g><svg viewBox="0 0 395.52 97.90516346441703" height="97.90516346441703" width="395.52"><g transform="matrix(1,0,0,1,0,0)"><svg width="395.52" viewBox="2.4 -33.75 138.16 34.210690607734804" height="97.90516346441703" data-palette-color="#f4f3f0"><g class="wordmark-text-0" data-fill-palette-color="primary" id="text-0"><path d="M23.33-8.85L23.33-8.85Q23.33-4.45 20.16-2 16.99 0.46 11.29 0.46 5.59 0.46 2.4-1.06L2.4-1.06 2.4-4.8Q6.9-2.93 11.65-2.93L11.65-2.93Q15.47-2.93 17.45-4.37 19.44-5.81 19.44-8.49L19.44-8.49Q19.44-10.21 18.74-11.3 18.05-12.39 16.41-13.35 14.76-14.31 11.48-15.47L11.48-15.47Q6.85-17.11 4.84-19.39 2.83-21.66 2.83-25.43 2.83-29.2 5.71-31.47L5.71-31.47Q8.65-33.75 13.49-33.75 18.33-33.75 22.5-31.93L22.5-31.93 21.28-28.54Q17.16-30.28 13.3-30.28L13.3-30.28Q10.21-30.28 8.48-28.96 6.75-27.63 6.75-25.3L6.75-25.3Q6.75-23.53 7.37-22.47 7.99-21.41 9.53-20.42L9.53-20.42Q11.12-19.46 14.18-18.4L14.18-18.4Q19.44-16.53 21.36-14.38L21.36-14.38Q23.33-12.26 23.33-8.85ZM39.56 0.46L39.56 0.46Q34.12 0.46 31.14-2.88L31.14-2.88Q28.18-6.22 28.18-12.37 28.18-18.53 31.19-21.97L31.19-21.97Q34.22-25.38 39.79-25.38L39.79-25.38Q41.61-25.38 43.4-25 45.19-24.62 46.21-24.09L46.21-24.09 45.04-20.88Q42.24-22.04 39.71-22.04L39.71-22.04Q32.1-22.04 32.1-12.36L32.1-12.36Q32.1-7.74 33.97-5.28 35.84-2.83 39.46-2.83L39.46-2.83Q42.54-2.83 45.85-4.2L45.85-4.2 45.85-0.83Q43.35 0.46 39.56 0.46ZM53.42-21.99Q56.49-25.38 61.8-25.38 67.11-25.38 70.19-21.9 73.28-18.43 73.28-12.42 73.28-6.42 70.19-2.96L70.19-2.96Q67.11 0.46 61.72 0.46L61.72 0.46Q56.64 0.51 53.46-3.06 50.27-6.62 50.35-12.49L50.35-12.49Q50.35-18.6 53.42-21.99ZM61.75-22.17L61.75-22.17Q54.27-22.17 54.27-12.49L54.27-12.49Q54.27-7.71 56.18-5.21 58.08-2.7 61.8-2.7 65.52-2.7 67.44-5.19 69.36-7.68 69.36-12.47 69.36-17.26 67.44-19.72 65.52-22.17 61.75-22.17ZM81.55-21.99Q84.62-25.38 89.93-25.38 95.24-25.38 98.32-21.9 101.41-18.43 101.41-12.42 101.41-6.42 98.32-2.96L98.32-2.96Q95.24 0.46 89.86 0.46L89.86 0.46Q84.78 0.51 81.59-3.06 78.41-6.62 78.48-12.49L78.48-12.49Q78.48-18.6 81.55-21.99ZM89.88-22.17L89.88-22.17Q82.4-22.17 82.4-12.49L82.4-12.49Q82.4-7.71 84.31-5.21 86.22-2.7 89.93-2.7 93.65-2.7 95.57-5.19 97.49-7.68 97.49-12.47 97.49-17.26 95.57-19.72 93.65-22.17 89.88-22.17ZM112.07-21.99L112.07-7.33Q112.07-5.08 113.12-3.87 114.17-2.65 116-2.65 117.84-2.65 119.48-3.11L119.48-3.11 119.48-0.23Q118.9 0.05 117.65 0.25 116.4 0.46 115.51 0.46L115.51 0.46Q108.28 0.46 108.28-7.15L108.28-7.15 108.28-21.99 104.72-21.99 104.72-23.81 108.28-25.38 109.87-30.71 112.07-30.71 112.07-24.92 119.3-24.92 119.3-21.99 112.07-21.99ZM140.56-6.8L140.56-6.8Q140.56-3.31 137.97-1.43 135.38 0.46 130.55 0.46 125.72 0.46 122.94-1.11L122.94-1.11 122.94-4.63Q126.83-2.65 130.78-2.65L130.78-2.65Q136.92-2.65 136.92-6.47L136.92-6.47Q136.92-7.94 135.63-8.99 134.34-10.04 130.83-11.36 127.31-12.69 125.77-13.68L125.77-13.68Q122.86-15.65 122.86-18.76 122.86-21.87 125.34-23.62 127.82-25.38 132.03-25.38 136.24-25.38 140.03-23.76L140.03-23.76 138.69-20.68Q134.97-22.22 132.1-22.22 129.23-22.22 127.86-21.4 126.48-20.58 126.48-19.06L126.48-19.06Q126.48-18.1 126.97-17.38 127.46-16.66 128.6-16.01 129.74-15.37 133-14.18L133-14.18Q137.45-12.54 139-10.91 140.56-9.28 140.56-6.8Z" fill="#ffffff" data-fill-palette-color="primary"></path></g></svg></g></svg></g></svg></g></svg></g><g><svg viewBox="0 0 143.55641778178844 110.95004744441596" height="110.95004744441596" width="143.55641778178844"><g><svg xmlns="http://www.w3.org/2000/svg" xmlns:xlink="http://www.w3.org/1999/xlink" version="1.1" x="0" y="0" viewBox="1.377434284747476 6.970026363191563 49.245131966894796 38.05994752835518" enable-background="new 0 0 52 52" xml:space="preserve" height="110.95004744441596" width="143.55641778178844" class="icon-icon-0" data-fill-palette-color="accent" id="icon-0"><g fill="#2f84ff" data-fill-palette-color="accent"><g fill="#2f84ff" data-fill-palette-color="accent"><path d="M12.588 21.514c2.392-0.002 4.785-0.004 7.177-0.006 0.71-0.001 7.866-0.663 6.519 1.766-0.302 0.544-5.903-0.003-6.714-0.004-1.243-0.001-2.487-0.001-3.73-0.002-0.497 0-0.995-0.001-1.492-0.001-1.352 0.444-2.107-0.074-2.266-1.555 1.575-0.197 1.595-2.7 0-2.5-2.921 0.366-4.938 3.729-2.097 5.845 1.864 1.388 5.219 0.711 7.347 0.712 3.156 0.002 6.752 0.513 9.854-0.035 2.716-0.48 4.148-3.519 1.946-5.643-1.343-1.296-3.361-1.073-5.06-1.086-3.827-0.03-7.656 0.006-11.484 0.009C10.98 19.016 10.977 21.516 12.588 21.514L12.588 21.514z" fill="#ffffff" data-fill-palette-color="accent"></path></g><g fill="#2f84ff" data-fill-palette-color="accent"><path d="M12.628 39.962c1.023 1.025-1.311 3.659-2.417 2.034-0.372-0.546-0.497-1.804-0.165-2.417 0.416-0.771 1.904-0.284 2.616-0.102 1.56 0.397 2.225-2.013 0.665-2.411-1.901-0.484-4.617-0.817-5.533 1.404-0.764 1.852-0.518 4.402 1.079 5.745 3.518 2.961 8.674-2.864 5.523-6.021C13.258 37.054 11.49 38.821 12.628 39.962L12.628 39.962z" fill="#ffffff" data-fill-palette-color="accent"></path></g><g fill="#2f84ff" data-fill-palette-color="accent"><path d="M45.391 39.596c0.112 0.855 0.35 2.305-0.72 2.712-0.725 0.276-2.606 0.005-3.108-0.609-0.689-0.844 0.662-1.974 1.415-2.161 1.2-0.298 1.87 0.223 2.817 0.788 1.385 0.826 2.644-1.335 1.262-2.158-0.476-0.284-0.801-0.723-1.324-0.943-0.45-0.189-0.933-0.203-1.415-0.215-1.205-0.031-2.262-0.064-3.27 0.668-1.69 1.228-2.964 3.308-1.666 5.281 1.11 1.687 3.906 2.263 5.789 1.825 2.36-0.55 2.99-3.13 2.72-5.188C47.685 38.023 45.182 38.003 45.391 39.596L45.391 39.596z" fill="#ffffff" data-fill-palette-color="accent"></path></g><g fill="#2f84ff" data-fill-palette-color="accent"><path d="M35.339 19.013c1.525-0.002 3.14-0.154 4.66-0.005 1.739 0.17 1.473 0.528 2.046 1.862 1.454 3.39 1.528 7.288 1.904 10.98 0.162 1.585 2.663 1.602 2.5 0-0.265-2.604-0.548-5.206-0.868-7.803-0.253-2.058-0.929-3.572-1.618-5.479-1.204-3.334-5.696-2.058-8.624-2.055C33.73 16.515 33.727 19.015 35.339 19.013L35.339 19.013z" fill="#ffffff" data-fill-palette-color="accent"></path></g><g fill="#2f84ff" data-fill-palette-color="accent"><path d="M13.923 19.677c0-1.781 0-3.562-0.001-5.343 0-1.646-0.363-3.811 0.057-5.395-0.291 0.291-0.582 0.582-0.873 0.873 1.807-0.522 4.192-0.148 6.065-0.148 1.828 0 4.32-0.358 6.09 0.158-0.291-0.291-0.582-0.582-0.873-0.873 0.38 1.49 0.023 3.525 0.007 5.07-0.018 1.664-0.036 3.328-0.053 4.992-0.017 1.609 2.483 1.61 2.5 0 0.021-1.997 0.043-3.994 0.063-5.991 0.013-1.207 0.478-3.615-0.106-4.735-0.383-0.734-0.79-0.885-1.602-1.034-2.029-0.371-4.476-0.091-6.528-0.086-1.849 0.004-6.31-0.943-7.152 1.302-0.489 1.304-0.095 3.535-0.095 4.896 0 2.105 0 4.21 0.001 6.314C11.423 21.286 13.923 21.289 13.923 19.677L13.923 19.677z" fill="#ffffff" data-fill-palette-color="accent"></path></g><g fill="#2f84ff" data-fill-palette-color="accent"><path d="M13.756 13.844c3.611 0 7.222 0 10.833 0 1.609 0 1.611-2.5 0-2.5-3.611 0-7.222 0-10.833 0C12.147 11.344 12.144 13.844 13.756 13.844L13.756 13.844z" fill="#ffffff" data-fill-palette-color="accent"></path></g><g fill="#2f84ff" data-fill-palette-color="accent"><path d="M14.962 23.416c-4.853 1.897-9.62 5.53-12.211 10.182-0.848 1.523-1.97 4.67-0.997 6.351 1.089 1.883 4.526 1.061 6.336 1.064 1.609 0.002 1.611-2.498 0-2.5-1.504-0.002-3.33 0.255-4.798-0.101 0.291 0.291 0.582 0.582 0.873 0.873-1.151-3.28 2.045-6.21 4.037-8.317 2.227-2.356 4.385-3.953 7.425-5.141C17.109 25.247 16.464 22.829 14.962 23.416L14.962 23.416z" fill="#ffffff" data-fill-palette-color="accent"></path></g><g fill="#2f84ff" data-fill-palette-color="accent"><path d="M14.589 41.511c7.611 0 15.223 0 22.834 0 0.54 0 1.07-0.387 1.205-0.918 0.767-2.998 6.025-7.577 8.76-4.092 0.992 1.265 2.75-0.516 1.768-1.768-2.595-3.307-9.446-2.467-11.736 0.933-0.406 0.602-0.48 1.703-0.858 2.159-1.619 1.951-4.346 1.186-6.75 1.186-5.074 0-10.148 0-15.223 0C12.98 39.011 12.978 41.511 14.589 41.511L14.589 41.511z" fill="#ffffff" data-fill-palette-color="accent"></path></g><g fill="#2f84ff" data-fill-palette-color="accent"><path d="M37.174 18.677c0.317 2.831 0.877 5.572 1.428 8.363 0.425 2.155 0.187 4.377 1.384 6.298 0.849 1.363 3.013 0.109 2.158-1.262-0.982-1.576-0.753-3.899-1.131-5.701-0.54-2.567-1.045-5.084-1.339-7.698C39.497 17.096 36.995 17.078 37.174 18.677L37.174 18.677z" fill="#ffffff" data-fill-palette-color="accent"></path></g><g fill="#2f84ff" data-fill-palette-color="accent"><path d="M44.176 22.612c1.141-0.099 2.562-0.055 3.51 0.671-0.191-0.249-0.383-0.498-0.575-0.747 0.165 0.45 0.341 0.658 0.646 1.006 0.243 0.278 0.43 0.483 0.366 0.906-0.143 0.945-1.453 0.856-2.194 0.782-1.599-0.161-1.588 2.34 0 2.5 2.729 0.275 5.371-1.477 4.537-4.484-0.179-0.647-0.548-0.978-0.941-1.471-0.161-0.202-0.65-0.74-1.161-0.99-1.272-0.622-2.794-0.793-4.188-0.673C42.585 20.251 42.57 22.752 44.176 22.612L44.176 22.612z" fill="#ffffff" data-fill-palette-color="accent"></path></g><g fill="#2f84ff" data-fill-palette-color="accent"><path d="M25.339 25.594c-0.001 1.196-0.002 2.392-0.002 3.589 0.306-0.402 0.612-0.804 0.917-1.206-2.939 0.703-5.247 2.009-5.648 5.245-0.456 3.675 0.816 5.107 3.459 7.401 1.21 1.05 2.985-0.711 1.767-1.768-1.536-1.333-2.704-1.972-2.776-4.152-0.087-2.628 1.425-3.731 3.863-4.315 0.531-0.127 0.917-0.67 0.918-1.205 0.001-1.196 0.002-2.392 0.002-3.589C27.84 23.986 25.34 23.983 25.339 25.594L25.339 25.594z" fill="#ffffff" data-fill-palette-color="accent"></path></g></g></svg></g></svg></g></svg></g><defs></defs></svg><rect width="395.52" height="73.86066238148685" fill="none" stroke="none" visibility="hidden"></rect></g></svg></g></svg>