<svg width="145" height="50" viewBox="0 0 145 50" fill="none" xmlns="http://www.w3.org/2000/svg">
<path d="M0 0V50H144.888V0H0ZM141.425 46.5426H3.46393V3.46393H141.431V46.5426H141.425Z" fill="black"/>
<path d="M19.3506 31.0004H26.5055L28.0688 35.9368H31.9803L24.8254 14.1348H21.0047L14.0444 35.9368H17.8846L19.3506 31.0004ZM22.8794 19.2204L25.3509 27.3094H20.4598L22.8794 19.2204Z" fill="black"/>
<path d="M48.009 32.2523H39.0313V14.1348H35.4312V35.9368H48.009V32.2523Z" fill="black"/>
<path d="M65.0419 32.2523H55.0523V26.3299H64.03V22.6584H55.0523V17.8192H64.7176V14.1348H51.4521V35.9368H65.0419V32.2523Z" fill="black"/>
<path d="M75.2202 22.6587H68.4805V26.3302H75.2202V22.6587Z" fill="black"/>
<path d="M82.2393 26.4012H89.3294V35.9368H92.9295V14.1348H89.3294V22.7168H82.2393V14.1348H78.6392V35.9368H82.2393V26.4012Z" fill="black"/>
<path d="M105.06 36.3127C107.629 36.3127 109.66 35.4045 111.158 33.5882C112.864 31.5384 113.714 28.6842 113.714 25.0387C113.714 21.432 112.909 18.6492 111.294 16.6967C109.686 14.7442 107.597 13.7646 105.041 13.7646C103.277 13.7646 101.772 14.1733 100.533 14.9971C99.2937 15.821 98.2882 17.0729 97.5228 18.753C96.7574 20.433 96.3682 22.5737 96.3682 25.1684C96.3682 28.7491 97.2179 31.5643 98.924 33.6142C100.429 35.411 102.472 36.3127 105.06 36.3127ZM101.473 19.3562C102.394 18.1367 103.594 17.527 105.06 17.527C106.533 17.527 107.72 18.1302 108.628 19.3433C109.536 20.5563 109.99 22.4245 109.99 24.9478C109.99 27.5231 109.523 29.4367 108.589 30.6821C107.655 31.9276 106.481 32.5503 105.06 32.5503C103.653 32.5503 102.466 31.9211 101.512 30.6692C100.559 29.4172 100.085 27.5361 100.085 25.0257C100.092 22.4634 100.552 20.5758 101.473 19.3562Z" fill="black"/>
<path d="M120.75 27.7107H123.118C125.298 27.7107 126.835 27.4967 127.73 27.0621C128.625 26.6339 129.365 25.8815 129.962 24.8176C130.558 23.7538 130.857 22.4305 130.857 20.8542C130.857 19.1223 130.513 17.7017 129.825 16.5989C129.138 15.4962 128.262 14.7761 127.198 14.4388C126.537 14.2312 125.122 14.1274 122.956 14.1274H117.157V35.9295H120.757V27.7107H120.75ZM120.75 17.8184H122.508C124.02 17.8184 125.006 17.9027 125.473 18.0714C125.94 18.2401 126.336 18.5709 126.653 19.0704C126.971 19.5698 127.133 20.1796 127.133 20.9061C127.133 21.6197 126.978 22.2229 126.673 22.7159C126.361 23.2089 125.972 23.5462 125.486 23.7343C125.006 23.9225 124.091 24.0198 122.748 24.0198H120.75V17.8184Z" fill="black"/>
</svg>
