<svg id="Capa_1" data-name="Capa 1" xmlns="http://www.w3.org/2000/svg" viewBox="0 0 840 200"><path d="M1,4V196.16H27.54V4Z"/><path d="M200.69,4V151L95.45,4H68V196.16H92.71V41.82L204.35,196.16H225.4V4Z"/><path d="M277.88,127.53c2.14,34.07,26,51.56,57.87,51.56,28.67,0,46.67-12.21,46.67-33.25,0-17.7-11.59-26.23-36.6-31.11l-38.13-7.33c-28.37-5.49-47.9-20.74-47.9-50.64,0-33.55,26.54-56.43,68.64-56.43,48.2,0,76,25.62,76.26,68.94H380.54c-1.36-31-20.49-48.5-51.8-48.5-27.76,0-43.32,13.12-43.32,34.47,0,18.91,12.51,25,34.78,29.28L355,91.24c35.08,6.71,52.77,22,52.77,52.77,0,35.38-30.5,55.82-72,55.82-47.27,0-81.75-25.93-81.75-72.3Z"/><path d="M440,4V196.16h26.54V4Z"/><path d="M576.55,4H507V196.16h69.55c60.4,0,98.53-36,98.53-96.08S637,4,576.55,4ZM575,174.51H533.54V25.65H575c47,0,72.59,27.76,72.59,74.43S622,174.51,575,174.51Z"/><path d="M728.66,174.21V108H815V86.36H728.66V26h108.6V4H703V196.16H840V174.21Z"/></svg>