<?xml version="1.0" encoding="utf-8"?>
<!-- Generator: Adobe Illustrator 24.1.2, SVG Export Plug-In . SVG Version: 6.00 Build 0)  -->
<svg version="1.1" id="Layer_1" xmlns="http://www.w3.org/2000/svg" xmlns:xlink="http://www.w3.org/1999/xlink" x="0px" y="0px"
	 viewBox="0 0 93.75 28.91" style="enable-background:new 0 0 93.75 28.91;" xml:space="preserve">
<g>
	<path d="M38.74,28.84c6.13,0,12.14,0,18.15,0c4.66,0,10.04-3.56,8.59-10.99c-0.73-3.74-4.22-6.33-8.42-6.36
		c-3.23-0.03-6.45-0.03-9.68-0.04c-1.04,0-2-0.16-2.37-1.33c-0.5-1.58-0.12-3.29,0.99-3.85c0.58-0.3,1.33-0.4,2-0.4
		c11.15-0.02,22.3-0.02,33.45-0.02c1.35,0,2.72-0.11,4.06,0.05c1.72,0.21,2.32,1.39,2.08,3.69c-0.13,1.32-0.83,1.85-2.48,1.86
		c-3.04,0.02-6.09,0.12-9.13,0.02c-4.63-0.16-9.33,2.98-9.19,9.02c0.1,4.47,4.15,8.32,8.39,8.32c5.17,0,10.34,0.02,15.51,0.03
		c1.01,0,2.02,0,2.99,0c0-2.05,0-3.9,0-5.79c-5.88,0-11.67,0-17.47,0c-2.53,0-3.47-1.02-3.26-3.51c0.14-1.68,0.66-2.18,2.35-2.2
		c3.08-0.03,6.16-0.04,9.24-0.09c0.91-0.01,1.84-0.04,2.73-0.22c4.24-0.89,6.33-3.85,6.5-8.51c0.16-4.53-3.99-8.48-8.34-8.49
		C72.61,0,59.81-0.04,47.01,0.07c-3.5,0.03-6.22,1.88-7.58,5.12c-1.27,3.01-1.13,6.13,0.89,8.86c1.77,2.39,4.34,3.22,7.24,3.23
		c3.23,0.01,6.45,0.05,9.68,0.07c0.93,0.01,1.79,0.18,2.16,1.17c0.99,2.69-0.32,4.55-3.18,4.55c-5.43,0-10.86,0-16.28,0
		c-0.39,0-0.78,0-1.2,0C38.74,25.03,38.74,26.85,38.74,28.84z M0.1,0.08C0.05,0.23,0.01,0.29,0.01,0.36
		c0.01,6.81-0.06,13.62,0.05,20.43c0.06,3.96,3.08,7.33,7.04,7.81c3.9,0.47,7.88,0.84,11.15-2.3c2.32,2.26,5.11,2.72,8.1,2.51
		c0.36-0.03,0.73,0,1.1,0c5.53,0,9.07-3.53,9.07-9.06c0.01-6.15,0-12.3,0-18.45c0-0.38,0-0.77,0-1.17c-2.06,0-3.95,0-5.94,0
		c0,0.46,0,0.85,0,1.25c0,6.19,0.01,12.38,0,18.56c0,2.12-0.96,3.08-3.09,3.12c-0.7,0.01-1.39,0-2.09,0c-3.05,0-4.17-1.12-4.17-4.16
		c0-5.82,0-11.64,0-17.47c0-0.43,0-0.86,0-1.31c-2.03,0-3.94,0-5.84,0c-0.04,0.2-0.08,0.31-0.08,0.41c-0.01,3.33-0.01,6.66-0.02,10
		c0,3,0.02,6.01-0.01,9.01c-0.02,2.17-1.29,3.43-3.41,3.45c-0.84,0.01-1.69,0-2.53,0c-2.57-0.01-3.41-0.85-3.41-3.45
		c0-6.08,0-12.16,0-18.23c0-0.39,0-0.79,0-1.23C3.94,0.08,2.05,0.08,0.1,0.08z"/>
</g>
</svg>
